<svg width="62pt" height="31pt" viewBox="-1 -1 64 33" xmlns="http://www.w3.org/2000/svg">
    <g id="fontsvg1699635230755" stroke-linecap="round" fill-rule="evenodd" stroke="#FCD462"
        stroke-width="0.5mm" fill="#ffffff">
        <path
            d="M 6.193 8.829 A 13.964 13.964 0 0 0 4.407 9.9 A 8.702 8.702 0 0 0 4.386 9.915 Q 3.063 10.892 2.073 12.399 A 13.438 13.438 0 0 0 0.867 14.73 A 13.366 13.366 0 0 0 0.448 15.953 Q -0.326 18.636 0.237 21.18 Q 0.327 21.9 1.377 22.95 A 1.921 1.921 0 0 0 1.429 22.997 Q 2.372 23.816 4.647 23.67 A 9.007 9.007 0 0 0 5.298 23.607 Q 7.112 23.36 7.497 22.41 Q 7.309 22.916 7.145 23.323 A 19.941 19.941 0 0 1 6.957 23.775 Q 6.717 24.33 6.492 25.125 A 3.148 3.148 0 0 0 6.415 25.477 Q 6.316 26.088 6.357 27.034 A 16.359 16.359 0 0 0 6.387 27.54 Q 6.537 29.4 8.187 30.18 Q 8.607 30.39 9.057 30.57 A 5.133 5.133 0 0 0 9.086 30.583 Q 10.195 31.079 11.358 30.966 A 4.985 4.985 0 0 0 12.477 30.72 A 4.83 4.83 0 0 0 13.221 30.302 A 5.922 5.922 0 0 0 14.112 29.55 A 9.3 9.3 0 0 0 14.477 29.155 A 7.923 7.923 0 0 0 15.372 27.915 A 6.529 6.529 0 0 0 15.731 27.202 A 4.96 4.96 0 0 0 16.032 26.25 A 3.375 3.375 0 0 0 16.034 26.242 Q 16.127 25.774 16.056 25.427 A 1.108 1.108 0 0 0 15.867 24.99 A 1.052 1.052 0 0 0 15.318 24.621 Q 14.505 24.379 12.923 25.059 A 13.58 13.58 0 0 0 12.117 25.44 A 0.226 0.226 0 0 0 12.031 25.539 Q 11.881 25.85 12.177 26.91 Q 12.297 27.33 12.417 27.48 A 0.165 0.165 0 0 0 12.427 27.492 Q 12.538 27.606 12.567 27.09 Q 13.137 24.21 13.977 21.69 Q 14.337 20.61 14.772 19.545 Q 15.003 18.979 15.264 18.333 A 434.977 434.977 0 0 0 15.747 17.13 A 73.742 73.742 0 0 0 16.096 16.239 Q 16.493 15.208 16.947 13.95 Q 17.607 12.12 18.042 10.785 A 5175.264 5175.264 0 0 1 18.145 10.468 Q 18.433 9.586 18.493 9.402 A 11.586 11.586 0 0 1 18.507 9.36 A 1.316 1.316 0 0 0 18.476 9.14 Q 18.418 8.881 18.254 8.631 A 2.33 2.33 0 0 0 17.952 8.265 Q 17.427 7.74 16.797 7.485 Q 16.167 7.23 15.627 7.35 A 0.681 0.681 0 0 0 15.238 7.579 Q 15.06 7.794 15.027 8.19 A 0.155 0.155 0 0 1 15.02 8.198 Q 14.91 8.318 14.317 8.513 A 12.656 12.656 0 0 1 14.007 8.61 Q 13.653 8.698 13.528 8.803 A 0.201 0.201 0 0 0 13.467 8.88 A 0.123 0.123 0 0 0 13.464 8.854 A 0.144 0.144 0 0 0 13.452 8.82 A 0.057 0.057 0 0 1 13.448 8.808 Q 13.439 8.775 13.452 8.7 Q 13.467 8.61 13.467 8.52 A 0.244 0.244 0 0 0 13.467 8.516 Q 13.466 8.442 13.418 8.553 A 1.239 1.239 0 0 0 13.407 8.58 A 1.574 1.574 0 0 0 12.649 7.734 A 2.254 2.254 0 0 0 12.057 7.53 A 4.367 4.367 0 0 0 11.793 7.484 Q 11.195 7.399 10.501 7.462 A 7.935 7.935 0 0 0 9.717 7.575 A 11.344 11.344 0 0 0 8.542 7.87 A 14.158 14.158 0 0 0 6.972 8.46 A 16.498 16.498 0 0 0 6.193 8.829 Z M 29.757 10.02 L 30.207 9.18 L 31.107 7.74 Q 31.258 7.262 31.599 7.069 A 0.927 0.927 0 0 1 31.737 7.005 Q 32.187 6.84 32.712 6.84 Q 33.237 6.84 33.777 6.855 A 1.844 1.844 0 0 0 33.828 6.856 A 1.658 1.658 0 0 0 34.767 6.57 A 1.436 1.436 0 0 1 35.517 6.332 Q 35.669 6.325 35.832 6.345 Q 36.447 6.42 36.942 6.75 Q 37.437 7.08 37.692 7.545 A 1.192 1.192 0 0 1 37.795 7.791 Q 37.883 8.1 37.762 8.403 A 1.114 1.114 0 0 1 37.737 8.46 Q 36.477 11.16 34.287 18.51 A 48.794 48.794 0 0 1 33.913 19.672 Q 33.608 20.576 33.327 21.27 Q 32.577 22.2 31.437 22.53 A 6.038 6.038 0 0 1 30.5 22.726 Q 30.188 22.764 29.887 22.764 A 4.464 4.464 0 0 1 29.292 22.725 A 3.601 3.601 0 0 1 28.555 22.551 Q 28.048 22.369 27.687 22.035 A 1.284 1.284 0 0 1 27.431 21.715 Q 27.176 21.253 27.417 20.64 Q 26.577 21.33 25.677 21.9 A 4.826 4.826 0 0 1 24.511 22.429 A 6.506 6.506 0 0 1 23.502 22.65 Q 22.227 22.83 21.057 22.545 Q 19.887 22.26 19.062 21.45 A 2.89 2.89 0 0 1 18.259 19.95 A 4.037 4.037 0 0 1 18.177 19.29 Q 17.997 14.55 21.927 8.28 A 3.667 3.667 0 0 1 22.786 7.654 A 3.056 3.056 0 0 1 23.802 7.335 A 4.346 4.346 0 0 1 24.215 7.3 Q 24.725 7.283 25.171 7.398 A 2.826 2.826 0 0 1 25.632 7.56 Q 26.427 7.92 26.802 8.715 Q 27.177 9.51 26.697 10.53 Q 25.677 12.03 25.077 13.77 Q 24.477 15.51 23.967 17.28 Q 26.727 15.54 28.587 12.09 A 44.208 44.208 0 0 1 29.678 10.151 A 48.3 48.3 0 0 1 29.757 10.02 Z M 55.617 17.04 L 53.997 18.54 Q 54.897 18.3 55.947 18.42 A 4.921 4.921 0 0 1 56.972 18.644 A 3.955 3.955 0 0 1 57.777 19.02 Q 58.557 19.5 58.842 20.34 A 1.659 1.659 0 0 1 58.928 20.877 Q 58.928 21.533 58.467 22.35 A 4.554 4.554 0 0 0 58.29 22.37 Q 57.917 22.419 57.132 22.56 Q 56.268 22.715 55.161 22.892 A 160.158 160.158 0 0 1 54.792 22.95 Q 53.457 23.16 51.972 23.34 A 31.389 31.389 0 0 1 50.277 23.501 A 25.127 25.127 0 0 1 49.197 23.55 A 19.662 19.662 0 0 1 48.825 23.562 Q 46.567 23.61 46.026 23.054 A 0.605 0.605 0 0 1 45.897 22.86 A 3.161 3.161 0 0 1 45.619 21.552 Q 45.619 19.673 47.703 17.297 A 18.528 18.528 0 0 1 48.477 16.47 A 239.463 239.463 0 0 1 49.429 15.551 A 184.004 184.004 0 0 1 50.307 14.715 Q 51.127 13.939 51.646 13.378 A 15.372 15.372 0 0 0 51.672 13.35 A 3.25 3.25 0 0 0 51.831 13.165 Q 52.16 12.749 52.055 12.526 A 0.257 0.257 0 0 0 52.047 12.51 A 15.884 15.884 0 0 1 51.849 12.467 Q 51.454 12.379 51.357 12.33 A 0.62 0.62 0 0 0 51.226 12.263 Q 50.955 12.156 50.322 12.075 A 2.758 2.758 0 0 1 49.79 11.957 Q 49.476 11.851 49.244 11.671 A 1.548 1.548 0 0 1 49.062 11.505 A 1.407 1.407 0 0 1 48.79 11.096 Q 48.658 10.786 48.702 10.425 Q 48.767 9.892 49.17 9.336 A 3.894 3.894 0 0 1 49.302 9.165 A 4.004 4.004 0 0 1 50 8.5 A 5.498 5.498 0 0 1 50.727 8.04 A 11.483 11.483 0 0 1 52.501 7.282 A 12.723 12.723 0 0 1 52.662 7.23 Q 53.697 6.9 54.777 6.69 A 22.239 22.239 0 0 1 56.462 6.397 Q 57.348 6.275 58.353 6.197 A 41.063 41.063 0 0 1 59.037 6.15 A 0.755 0.755 0 0 1 59.211 6.169 Q 59.331 6.197 59.414 6.269 A 0.438 0.438 0 0 1 59.502 6.375 Q 59.637 6.6 59.757 6.855 Q 59.877 7.11 60.072 7.305 Q 60.259 7.492 60.821 7.43 A 3.22 3.22 0 0 0 60.867 7.425 A 1.094 1.094 0 0 1 60.967 7.417 Q 61.398 7.403 61.632 7.766 A 1.185 1.185 0 0 1 61.722 7.935 A 2.032 2.032 0 0 1 61.864 8.439 Q 61.93 8.862 61.857 9.39 A 5.394 5.394 0 0 1 61.578 10.495 A 6.812 6.812 0 0 1 61.287 11.175 Q 60.837 12.09 60.117 12.63 Q 56.748 15.999 55.744 16.924 A 14.667 14.667 0 0 1 55.617 17.04 Z M 42.027 7.11 A 4.59 4.59 0 0 0 41.595 7.237 Q 40.496 7.624 40.167 8.46 A 8.916 8.916 0 0 0 40.062 8.624 Q 39.241 9.93 38.367 12.27 A 77.593 77.593 0 0 0 38.192 12.727 Q 36.395 17.459 35.937 20.58 Q 35.707 21.351 35.751 21.981 A 2.288 2.288 0 0 0 36.267 23.31 Q 36.627 23.73 37.137 23.955 A 3.109 3.109 0 0 0 37.423 24.065 A 2.548 2.548 0 0 0 38.142 24.195 Q 38.247 24.198 38.349 24.193 A 2.217 2.217 0 0 0 39.057 24.045 A 1.426 1.426 0 0 0 39.307 23.919 A 1.012 1.012 0 0 0 39.657 23.55 Q 39.837 23.22 40.497 23.19 A 5.962 5.962 0 0 0 40.704 23.163 A 7.13 7.13 0 0 0 41.067 23.1 A 0.917 0.917 0 0 0 41.328 23.005 Q 41.992 22.642 42.377 21.115 A 11.634 11.634 0 0 0 42.567 20.19 A 8.115 8.115 0 0 1 42.58 20.072 Q 42.788 18.37 43.947 14.43 Q 44.397 12.84 44.892 11.325 A 352.272 352.272 0 0 0 45.185 10.424 Q 45.324 9.996 45.446 9.613 A 171.291 171.291 0 0 0 45.717 8.76 A 1.844 1.844 0 0 0 45.718 8.748 Q 45.804 7.923 45.097 7.45 A 2.546 2.546 0 0 0 44.607 7.2 Q 43.407 6.75 42.027 7.11 Z M 43.452 3.78 A 2.481 2.481 0 0 0 44.109 4.01 Q 44.847 4.162 45.837 3.96 Q 46.798 3.556 47.285 3.067 A 1.787 1.787 0 0 0 47.682 2.49 A 2.245 2.245 0 0 0 47.785 2.177 Q 47.837 1.967 47.837 1.769 A 1.425 1.425 0 0 0 47.607 0.99 A 1.259 1.259 0 0 0 46.819 0.225 A 2.043 2.043 0 0 0 46.317 0.12 A 3.594 3.594 0 0 0 46.112 0.063 Q 45.986 0.032 45.875 0.017 A 1.556 1.556 0 0 0 45.657 0 A 2.604 2.604 0 0 0 45.636 0 Q 45.364 0.002 44.787 0.06 A 4.061 4.061 0 0 0 44.009 0.298 A 2.827 2.827 0 0 0 42.807 1.23 Q 42.237 1.95 42.387 2.625 A 1.293 1.293 0 0 0 42.623 3.126 Q 42.897 3.489 43.452 3.78 Z M 9.387 14.4 L 9.327 14.4 A 19.507 19.507 0 0 0 8.599 14.51 Q 7.527 14.695 7.068 14.931 A 1.369 1.369 0 0 0 6.972 14.985 A 3.336 3.336 0 0 0 6.432 15.398 A 2.717 2.717 0 0 0 6.087 15.795 A 7.434 7.434 0 0 0 5.824 16.19 Q 5.695 16.399 5.597 16.593 A 4.369 4.369 0 0 0 5.562 16.665 A 14.101 14.101 0 0 0 5.472 16.855 Q 5.348 17.123 5.292 17.28 A 1.851 1.851 0 0 0 5.225 17.52 A 2.495 2.495 0 0 0 5.187 17.76 Q 5.068 18.472 5.317 18.656 A 0.298 0.298 0 0 0 5.322 18.66 Q 5.577 18.84 5.832 18.84 Q 6.087 18.84 6.357 18.81 A 2.953 2.953 0 0 0 8.423 17.367 A 4.305 4.305 0 0 0 8.697 16.83 A 13.615 13.615 0 0 1 8.862 16.451 A 18.75 18.75 0 0 1 9.056 16.036 Q 9.267 15.6 9.297 15.195 Q 9.327 14.79 9.387 14.4 Z M 47.253 19.131 A 0.219 0.219 0 0 0 47.277 19.11 A 0.625 0.625 0 0 1 47.268 19.118 Q 47.215 19.17 47.187 19.17 A 0.548 0.548 0 0 0 47.223 19.15 Q 47.239 19.14 47.253 19.131 Z M 47.277 19.11 Q 47.307 19.08 47.277 19.11"
            vector-effect="non-scaling-stroke" />
    </g>
</svg>