<svg id="eNM2tW9raVq1" xmlns="http://www.w3.org/2000/svg" xmlns:xlink="http://www.w3.org/1999/xlink" viewBox="0 0 300 300" shape-rendering="geometricPrecision" text-rendering="geometricPrecision"><defs><linearGradient id="eNM2tW9raVq2-stroke" x1="0" y1="0.5" x2="1" y2="0.5" spreadMethod="pad" gradientUnits="objectBoundingBox" gradientTransform="translate(0 0)"><stop id="eNM2tW9raVq2-stroke-0" offset="55.2049%" stop-color="rgba(0,0,0,0)"/><stop id="eNM2tW9raVq2-stroke-1" offset="100%" stop-color="#00f"/></linearGradient><linearGradient id="eNM2tW9raVq3-stroke" x1="0" y1="0.5" x2="1" y2="0.5" spreadMethod="pad" gradientUnits="objectBoundingBox" gradientTransform="translate(0 0)"><stop id="eNM2tW9raVq3-stroke-0" offset="51.7201%" stop-color="rgba(0,0,0,0)"/><stop id="eNM2tW9raVq3-stroke-1" offset="100%" stop-color="#0f0"/></linearGradient></defs><path d="M0,118.920883C0,53.242695,55.964408,0,125,0s125,53.242695,125,118.920883-55.964408,118.920884-125,118.920884-125-53.242695-125-118.920884Z" transform="matrix(1 0 0 1.051119 25 25)" fill="none" stroke="url(#eNM2tW9raVq2-stroke)" stroke-width="10"/><path style="mix-blend-mode:screen" d="M0,118.920883C0,53.242695,55.964408,0,125,0s125,53.242695,125,118.920883-55.964408,118.920884-125,118.920884-125-53.242695-125-118.920884Z" transform="matrix(-.5 0.866025-.910296-.525559 320.753176 104.246825)" fill="none" stroke="url(#eNM2tW9raVq3-stroke)" stroke-width="10"/></svg>
