<svg id="eYEnzaLdH8O1" xmlns="http://www.w3.org/2000/svg" xmlns:xlink="http://www.w3.org/1999/xlink" viewBox="0 0 300 300" shape-rendering="geometricPrecision" text-rendering="geometricPrecision"><defs><linearGradient id="eYEnzaLdH8O2-stroke" x1="0" y1="0.5" x2="1" y2="0.5" spreadMethod="pad" gradientUnits="objectBoundingBox" gradientTransform="translate(0 0)"><stop id="eYEnzaLdH8O2-stroke-0" offset="76%" stop-color="rgba(0,0,0,0)"/><stop id="eYEnzaLdH8O2-stroke-1" offset="100%" stop-color="#00f"/></linearGradient><linearGradient id="eYEnzaLdH8O3-stroke" x1="0" y1="0.5" x2="1" y2="0.5" spreadMethod="pad" gradientUnits="objectBoundingBox" gradientTransform="translate(0 0)"><stop id="eYEnzaLdH8O3-stroke-0" offset="76%" stop-color="rgba(0,0,0,0)"/><stop id="eYEnzaLdH8O3-stroke-1" offset="100%" stop-color="#0f0"/></linearGradient></defs><path d="M0,118.920883C0,53.242695,55.964408,0,125,0s125,53.242695,125,118.920883-55.964408,118.920884-125,118.920884-125-53.242695-125-118.920884Z" transform="matrix(1 0 0 1.051119 25 25)" fill="none" stroke="url(#eYEnzaLdH8O2-stroke)" stroke-width="10"/><path style="mix-blend-mode:screen" d="M0,118.920883C0,53.242695,55.964408,0,125,0s125,53.242695,125,118.920883-55.964408,118.920884-125,118.920884-125-53.242695-125-118.920884Z" transform="matrix(.866025 0.5-.525559 0.910296 104.246825-20.753176)" fill="none" stroke="url(#eYEnzaLdH8O3-stroke)" stroke-width="10"/></svg>
