<svg id="eOxoy3CmWqk1" xmlns="http://www.w3.org/2000/svg" xmlns:xlink="http://www.w3.org/1999/xlink" viewBox="0 0 300 300" shape-rendering="geometricPrecision" text-rendering="geometricPrecision"><defs><linearGradient id="eOxoy3CmWqk2-stroke" x1="0" y1="0.5" x2="1" y2="0.5" spreadMethod="pad" gradientUnits="objectBoundingBox" gradientTransform="translate(0 0)"><stop id="eOxoy3CmWqk2-stroke-0" offset="0%" stop-color="#00f"/><stop id="eOxoy3CmWqk2-stroke-1" offset="100%" stop-color="#0ff"/></linearGradient></defs><rect width="280" height="200" rx="0" ry="0" transform="translate(10 50)" fill="none" stroke="url(#eOxoy3CmWqk2-stroke)" stroke-width="10" stroke-opacity="0.75"/><line style="mix-blend-mode:lighten" x1="-140" y1="0" x2="20" y2="0" transform="translate(150 90)" fill="none" stroke="#00f" stroke-width="10" stroke-opacity="0.75"/><line style="mix-blend-mode:hard-light" x1="-140" y1="0" x2="0" y2="0" transform="translate(290 90)" fill="none" stroke="#0ff" stroke-width="10" stroke-opacity="0.75"/><line x1="28.763971" y1="-46.570239" x2="-28.763971" y2="46.570239" transform="translate(150 175)" fill="none" stroke="#0096ff" stroke-width="10" stroke-opacity="0.75"/><line x1="-21.23055" y1="-23.285119" x2="18.76945" y2="21.714881" transform="translate(231.23055 148.285119)" fill="none" stroke="#0ff" stroke-width="7" stroke-opacity="0.75"/><line x1="-21.23055" y1="-23.285119" x2="18.76945" y2="21.714881" transform="matrix(-1 0 0 1 68.76945 148.285119)" fill="none" stroke="#00f" stroke-width="7" stroke-opacity="0.75"/><line x1="18.76945" y1="-23.28512" x2="-21.23055" y2="21.71488" transform="translate(231.23055 198.28512)" fill="none" stroke="#0ff" stroke-width="7" stroke-opacity="0.75"/><line x1="18.76945" y1="-23.28512" x2="-21.23055" y2="21.71488" transform="matrix(-1 0 0 1 68.76945 198.28512)" fill="none" stroke="#00f" stroke-width="7" stroke-opacity="0.75"/><rect width="48.205128" height="16.436555" rx="0" ry="0" transform="translate(21.794872 62.458909)" fill="#00f" stroke-width="0" stroke-opacity="0.75"/><rect width="38.132807" height="6" rx="0" ry="0" transform="translate(94.773177 62.458909)" fill="#007dff" stroke-width="0" stroke-opacity="0.75"/><rect width="38.132807" height="6" rx="0" ry="0" transform="translate(94.773177 72.895464)" fill="#007dff" stroke-width="0" stroke-opacity="0.75"/></svg>
